<svg xmlns:xlink="http://www.w3.org/1999/xlink" width="187" height="64" viewBox="0 0 187 64">
  <defs>
    <linearGradient id="get-notified-b" x1="50%" x2="50%" y1="-8.435%" y2="100%">
      <stop offset="0%" stop-color="#102FAF6"/>
      <stop offset="0%" stop-color="#F5F7F8"/>
      <stop offset="0%" stop-color="#102FAF6"/>
      <stop offset="8.369%" stop-color="#E8F3FB"/>
      <stop offset="79.289%" stop-color="#D6E6F0"/>
      <stop offset="100%" stop-color="#E7ECEF"/>
    </linearGradient>
    <rect id="get-notified-a" width="187" height="64" rx="7"/>
  </defs>
  <g fill="none" fill-rule="evenodd">
    <use fill="#94AAB8" xlink:href="#get-notified-a"/>
    <rect width="185" height="62" x="1" y="1" stroke="url(#get-notified-b)" stroke-width="2" rx="7"/>
    <path fill="#FFF" d="M26.3589951 43.504548L28.0307941 43.504548 28.0307941 49.3076356C28.0307941 50.6837964 29.1508994 51.7946731 30.5384926 51.7946731 31.9260858 51.7946731 33.0461911 50.6837964 33.0461911 49.3076356L33.0461911 43.504548 36.3897892 43.504548 36.3897892 49.3076356C36.3897892 50.6837964 37.5098945 51.7946731 38.8974877 51.7946731 40.2850809 51.7946731 41.4051862 50.6837964 41.4051862 49.3076356L41.4051862 43.504548 43.0769852 43.504548C43.9964747 43.504548 44.7487842 42.7584367 44.7487842 41.846523L44.7487842 25.2662727 24.6871961 25.2662727 24.6871961 41.846523C24.6871961 42.7584367 25.4395056 43.504548 26.3589951 43.504548zM20.5076985 25.2662727C19.1201053 25.2662727 18 26.3771495 18 27.7533103L18 39.3594854C18 40.7356462 19.1201053 41.846523 20.5076985 41.846523 21.8952917 41.846523 23.015397 40.7356462 23.015397 39.3594854L23.015397 27.7533103C23.015397 26.3771495 21.8952917 25.2662727 20.5076985 25.2662727L20.5076985 25.2662727zM48.9282818 25.2662727C47.5406886 25.2662727 46.4205833 26.3771495 46.4205833 27.7533103L46.4205833 39.3594854C46.4205833 40.7356462 47.5406886 41.846523 48.9282818 41.846523 50.315875 41.846523 51.4359803 40.7356462 51.4359803 39.3594854L51.4359803 27.7533103C51.4359803 26.3771495 50.315875 25.2662727 48.9282818 25.2662727L48.9282818 25.2662727zM40.6194407 15.5834066L42.8011384 13.4196839C43.1271392 13.096369 43.1271392 12.5740912 42.8011384 12.2507763 42.4751376 11.9274614 41.9485209 11.9274614 41.6225201 12.2507763L39.1482575 14.6963632C37.8108183 14.0414433 36.3145582 13.6600976 34.7179902 13.6600976 33.1130631 13.6600976 31.608444 14.0414433 30.2626458 14.7046533L27.7800242 12.2424862C27.4540234 11.9191713 26.9274067 11.9191713 26.6014059 12.2424862 26.2754051 12.565801 26.2754051 13.0880789 26.6014059 13.4113938L28.7914626 15.5834066C26.3088411 17.398944 24.6871961 20.317068 24.6871961 23.6082477L44.7487842 23.6082477C44.7487842 20.3087779 43.1187802 17.3906539 40.6194407 15.5834066L40.6194407 15.5834066zM38.8974877 20.2901251C39.3591422 20.2901251 39.7333872 19.9189636 39.7333872 19.4611126 39.7333872 19.0032616 39.3591422 18.6321001 38.8974877 18.6321001 38.4358331 18.6321001 38.0615882 19.0032616 38.0615882 19.4611126 38.0615882 19.9189636 38.4358331 20.2901251 38.8974877 20.2901251zM30.5384926 20.2901251C31.0001472 20.2901251 31.3743921 19.9189636 31.3743921 19.4611126 31.3743921 19.0032616 31.0001472 18.6321001 30.5384926 18.6321001 30.0768381 18.6321001 29.7025931 19.0032616 29.7025931 19.4611126 29.7025931 19.9189636 30.0768381 20.2901251 30.5384926 20.2901251zM77.7265625 38.246582C77.2379533 38.8836295 76.560714 39.3660465 75.6948242 39.6938477 74.8289345 40.0216488 73.8455459 40.1855469 72.7446289 40.1855469 71.6127873 40.1855469 70.6108442 39.9288763 69.7387695 39.4155273 68.8666949 38.9021784 68.1940942 38.1677294 67.7209473 37.2121582 67.2478004 36.256587 67.0019532 35.1417707 66.9833984 33.8676758L66.9833984 32.8100586C66.9833984 30.7690328 67.4720003 29.1748918 68.4492188 28.0275879 69.4264372 26.880284 70.7901931 26.3066406 72.5405273 26.3066406 74.0434645 26.3066406 75.2371375 26.6777307 76.121582 27.4199219 77.0060266 28.1621131 77.5379223 29.2320894 77.7172852 30.6298828L75.4165039 30.6298828C75.156737 29.0032471 74.2135498 28.1899414 72.5869141 28.1899414 71.5354765 28.1899414 70.7360867 28.5687625 70.1887207 29.326416 69.6413547 30.0840695 69.3583985 31.1957935 69.3398438 32.6616211L69.3398438 33.7006836C69.3398438 35.1603263 69.6475392 36.2936971 70.2629395 37.1008301 70.8783397 37.907963 71.733393 38.3115234 72.828125 38.3115234 74.0280008 38.3115234 74.8815079 38.0393907 75.3886719 37.4951172L75.3886719 34.8510742 72.6054688 34.8510742 72.6054688 33.0698242 77.7265625 33.0698242 77.7265625 38.246582zM84.6259198 40.1855469C83.1972017 40.1855469 82.0390916 39.7356002 81.1515546 38.8356934 80.2640176 37.9357865 79.8202558 36.7374749 79.8202558 35.2407227L79.8202558 34.9624023C79.8202558 33.9604442 80.0135318 33.0651895 80.4000897 32.2766113 80.7866477 31.4880332 81.3293668 30.8741884 82.0282636 30.4350586 82.7271603 29.9959288 83.5064494 29.7763672 84.3661542 29.7763672 85.733023 29.7763672 86.7890834 30.212398 87.5343671 31.0844727 88.2796508 31.9565473 88.652287 33.1904217 88.652287 34.7861328L88.652287 35.6953125 82.093205 35.6953125C82.1612392 36.5240927 82.4380105 37.1796851 82.9235272 37.6621094 83.409044 38.1445337 84.0197963 38.3857422 84.7558026 38.3857422 85.7886854 38.3857422 86.6298228 37.9682659 87.2792401 37.1333008L88.4945722 38.2929688C88.0925519 38.8929066 87.5560176 39.3583154 86.884953 39.689209 86.2138885 40.0201026 85.4608849 40.1855469 84.6259198 40.1855469zM84.3568769 31.5854492C83.7383842 31.5854492 83.2389588 31.8019184 82.8585858 32.2348633 82.4782128 32.6678082 82.2354581 33.2708295 82.1303144 34.0439453L86.4257245 34.0439453 86.4257245 33.8769531C86.3762451 33.1223921 86.175238 32.5518411 85.8226972 32.1652832 85.4701563 31.7787253 84.9815545 31.5854492 84.3568769 31.5854492zM93.3436365 27.5219727L93.3436365 29.9619141 95.1156092 29.9619141 95.1156092 31.6318359 93.3436365 31.6318359 93.3436365 37.2353516C93.3436365 37.618817 93.4194007 37.8955883 93.5709314 38.0656738 93.7224621 38.2357593 93.9930486 38.3208008 94.382699 38.3208008 94.6424659 38.3208008 94.9053214 38.2898766 95.1712732 38.2280273L95.1712732 39.972168C94.6579243 40.1144213 94.1631376 40.1855469 93.6868982 40.1855469 91.9551187 40.1855469 91.089242 39.22999 91.089242 37.3188477L91.089242 31.6318359 89.4378748 31.6318359 89.4378748 29.9619141 91.089242 29.9619141 91.089242 27.5219727 93.3436365 27.5219727zM112.736589 40L110.389421 40 104.368425 30.4165039 104.368425 40 102.021257 40 102.021257 26.4921875 104.368425 26.4921875 110.407976 36.112793 110.407976 26.4921875 112.736589 26.4921875 112.736589 40zM114.987998 34.8881836C114.987998 33.9047802 115.18282 33.0188028 115.57247 32.2302246 115.962121 31.4416464 116.509478 30.8355327 117.21456 30.4118652 117.919642 29.9881978 118.729855 29.7763672 119.645224 29.7763672 120.999723 29.7763672 122.099077 30.212398 122.94332 31.0844727 123.787562 31.9565473 124.243694 33.1131113 124.311728 34.5541992L124.321005 35.0830078C124.321005 36.0725961 124.130822 36.9570274 123.750449 37.7363281 123.370076 38.5156289 122.82581 39.1186502 122.117636 39.5454102 121.409462 39.9721701 120.591518 40.1855469 119.663779 40.1855469 118.247431 40.1855469 117.11406 39.7139533 116.263632 38.770752 115.413205 37.8275506 114.987998 36.5704831 114.987998 34.9995117L114.987998 34.8881836zM117.242392 35.0830078C117.242392 36.1158906 117.455769 36.9245576 117.882529 37.5090332 118.309289 38.0935088 118.903033 38.3857422 119.663779 38.3857422 120.424525 38.3857422 121.016723 38.0888702 121.44039 37.4951172 121.864058 36.9013642 122.075888 36.032395 122.075888 34.8881836 122.075888 33.8738556 121.857873 33.0698272 121.421835 32.4760742 120.985798 31.8823212 120.3936 31.5854492 119.645224 31.5854492 118.909218 31.5854492 118.324751 31.8776826 117.891806 32.4621582 117.458861 33.0466338 117.242392 33.9202416 117.242392 35.0830078zM129.17007 27.5219727L129.17007 29.9619141 130.942042 29.9619141 130.942042 31.6318359 129.17007 31.6318359 129.17007 37.2353516C129.17007 37.618817 129.245834 37.8955883 129.397365 38.0656738 129.548895 38.2357593 129.819482 38.3208008 130.209132 38.3208008 130.468899 38.3208008 130.731755 38.2898766 130.997706 38.2280273L130.997706 39.972168C130.484357 40.1144213 129.989571 40.1855469 129.513331 40.1855469 127.781552 40.1855469 126.915675 39.22999 126.915675 37.3188477L126.915675 31.6318359 125.264308 31.6318359 125.264308 29.9619141 126.915675 29.9619141 126.915675 27.5219727 129.17007 27.5219727zM135.178802 40L132.924407 40 132.924407 29.9619141 135.178802 29.9619141 135.178802 40zM132.785247 27.3549805C132.785247 27.0086246 132.895028 26.7210298 133.114593 26.4921875 133.334158 26.2633452 133.648038 26.1489258 134.056243 26.1489258 134.464449 26.1489258 134.779875 26.2633452 135.002532 26.4921875 135.22519 26.7210298 135.336517 27.0086246 135.336517 27.3549805 135.336517 27.6951514 135.22519 27.9781076 135.002532 28.2038574 134.779875 28.4296072 134.464449 28.5424805 134.056243 28.5424805 133.648038 28.5424805 133.334158 28.4296072 133.114593 28.2038574 132.895028 27.9781076 132.785247 27.6951514 132.785247 27.3549805zM138.348667 40L138.348667 31.6318359 136.817905 31.6318359 136.817905 29.9619141 138.348667 29.9619141 138.348667 29.2753906C138.354852 28.4899049 138.521843 27.815758 138.849644 27.2529297 139.177445 26.6901014 139.641307 26.2664402 140.241245 25.9819336 140.841183 25.697427 141.561716 25.5551758 142.402866 25.5551758 142.897661 25.5551758 143.372347 25.6077469 143.826939 25.7128906 144.281531 25.8180344 144.753124 25.9510083 145.241734 26.1118164L144.898472 27.9765625C144.044952 27.679686 143.265663 27.53125 142.560581 27.53125 141.874054 27.53125 141.376175 27.6812322 141.066929 27.9812012 140.757683 28.2811701 140.603062 28.7311168 140.603062 29.3310547L140.603062 29.9619141 142.579136 29.9619141 142.579136 31.6318359 140.603062 31.6318359 140.603062 40 138.348667 40zM146.308628 40L144.054234 40 144.054234 29.9619141 146.308628 29.9619141 146.308628 40zM153.347146 40.1855469C151.918427 40.1855469 150.760317 39.7356002 149.87278 38.8356934 148.985243 37.9357865 148.541481 36.7374749 148.541481 35.2407227L148.541481 34.9624023C148.541481 33.9604442 148.734758 33.0651895 149.121315 32.2766113 149.507873 31.4880332 150.050593 30.8741884 150.749489 30.4350586 151.448386 29.9959288 152.227675 29.7763672 153.08738 29.7763672 154.454249 29.7763672 155.510309 30.212398 156.255593 31.0844727 157.000876 31.9565473 157.373513 33.1904217 157.373513 34.7861328L157.373513 35.6953125 150.814431 35.6953125C150.882465 36.5240927 151.159236 37.1796851 151.644753 37.6621094 152.13027 38.1445337 152.741022 38.3857422 153.477028 38.3857422 154.509911 38.3857422 155.351049 37.9682659 156.000466 37.1333008L157.215798 38.2929688C156.813778 38.8929066 156.277243 39.3583154 155.606179 39.689209 154.935114 40.0201026 154.182111 40.1855469 153.347146 40.1855469zM153.078103 31.5854492C152.45961 31.5854492 151.960185 31.8019184 151.579812 32.2348633 151.199439 32.6678082 150.956684 33.2708295 150.85154 34.0439453L155.14695 34.0439453 155.14695 33.8769531C155.097471 33.1223921 154.896464 32.5518411 154.543923 32.1652832 154.191382 31.7787253 153.70278 31.5854492 153.078103 31.5854492zM158.817792 34.9067383C158.817792 33.3605066 159.176512 32.1189012 159.893964 31.1818848 160.611415 30.2448684 161.573157 29.7763672 162.779218 29.7763672 163.843025 29.7763672 164.702717 30.1474572 165.358319 30.8896484L165.358319 25.75 167.612714 25.75 167.612714 40 165.571698 40 165.46037 38.9609375C164.786213 39.7773478 163.88632 40.1855469 162.760663 40.1855469 161.585527 40.1855469 160.634609 39.7124071 159.90788 38.7661133 159.181151 37.8198195 158.817792 36.533374 158.817792 34.9067383zM161.072186 35.1015625C161.072186 36.1220754 161.268555 36.9183728 161.661298 37.4904785 162.054041 38.0625842 162.612222 38.3486328 163.335858 38.3486328 164.257412 38.3486328 164.931559 37.9373414 165.358319 37.1147461L165.358319 32.8286133C164.943929 32.0245728 164.275967 31.6225586 163.354413 31.6225586 162.624592 31.6225586 162.061772 31.9116996 161.665936 32.4899902 161.270101 33.0682809 161.072186 33.9387963 161.072186 35.1015625z"/>
  </g>
</svg>
